<svg width="150" height="25" viewBox="0 0 150 25" fill="none" xmlns="http://www.w3.org/2000/svg">
<path d="M6.92154 12.0537C6.92154 12.8788 7.01068 13.5906 7.20047 14.1783C7.38595 14.7707 7.71376 15.3197 8.18967 15.8377C8.66846 16.3479 9.36723 16.7387 10.286 17.0054C11.2076 17.2753 12.3506 17.4086 13.718 17.4086H23.9048V23.77H13.6849C9.03222 23.77 5.58439 22.686 3.35006 20.5211C1.11573 18.3577 0 15.5337 0 12.0522C0 8.5722 1.11573 5.74821 3.35006 3.58175C5.58439 1.41839 9.03222 0.335938 13.6849 0.335938H23.9048V6.69729H13.718C11.1084 6.69729 9.32409 7.16563 8.36508 8.10231C7.4032 9.03899 6.92154 10.3572 6.92154 12.0537Z" fill="#636363"/>
<path d="M45.088 24.104H42.5718C40.1074 24.104 37.9594 23.7876 36.1161 23.1642C34.2758 22.5361 32.8063 21.6692 31.7107 20.5558C30.6108 19.4377 29.7999 18.1753 29.2722 16.7532C28.7431 15.3374 28.4814 13.7695 28.4814 12.0512C28.4814 10.3345 28.7431 8.76664 29.2722 7.35076C29.7999 5.92869 30.6108 4.66324 31.7107 3.54822C32.8063 2.4332 34.2758 1.56165 36.1161 0.93823C37.9594 0.31326 40.1074 0 42.5718 0H45.088C47.548 0 49.699 0.31326 51.5437 0.93823C53.3826 1.56165 54.8549 2.4332 55.9505 3.54822C57.0447 4.66324 57.8613 5.92869 58.3847 7.35076C58.9138 8.76664 59.1769 10.3345 59.1769 12.0512C59.1769 13.768 58.9152 15.3374 58.3847 16.7532C57.8613 18.1753 57.0461 19.4377 55.9505 20.5558C54.8549 21.6708 53.3826 22.5377 51.5437 23.1642C49.699 23.7861 47.548 24.104 45.088 24.104ZM42.6035 17.7426H45.0549C47.7881 17.7426 49.6645 17.2448 50.6882 16.2523C51.7148 15.2598 52.2266 13.861 52.2266 12.0528C52.2266 10.2445 51.7076 8.84573 50.6767 7.85012C49.64 6.85916 47.7666 6.36136 45.0549 6.36136H42.6293C41.2088 6.36136 39.9996 6.49938 39.0176 6.78162C38.037 7.05921 37.2851 7.47483 36.7689 8.01916C36.2527 8.56814 35.889 9.16364 35.6834 9.80877C35.4749 10.4586 35.3714 11.206 35.3714 12.0543C35.3714 13.8641 35.8961 15.2614 36.9385 16.2539C37.9838 17.2448 39.8731 17.7426 42.6035 17.7426Z" fill="#636363"/>
<path d="M70.8931 0.335938V17.4071H86.082V23.7684H64.4072V0.335938H70.8931Z" fill="#636363"/>
<path d="M130.178 23.7684V16.703L116.852 0.335938H126.411L133.449 11.0318L140.434 0.335938H150L136.666 16.703V23.7684H130.178Z" fill="#636363"/>
<path d="M112.723 3.58175C110.489 1.41839 107.042 0.335938 102.388 0.335938H91.875V6.67093H94.9749V6.69729H102.355C104.943 6.69729 106.716 7.16563 107.681 8.10231C108.643 9.03589 109.124 10.3556 109.124 12.0522C109.124 12.8772 109.032 13.589 108.845 14.1768C108.66 14.7692 108.328 15.3182 107.85 15.8361C107.374 16.3463 106.676 16.7371 105.754 17.0039C104.837 17.2737 103.704 17.4071 102.355 17.4071H94.9749H100.958H91.875V23.7684H102.388C107.042 23.7684 110.489 22.6844 112.723 20.5195C114.957 18.3562 116.077 15.5322 116.077 12.0506C116.077 8.5722 114.957 5.74976 112.723 3.58175Z" fill="#636363"/>
</svg>
